<svg width="25" height="25" viewBox="0 0 25 25" fill="none" xmlns="http://www.w3.org/2000/svg">
<g clip-path="url(#clip0_410_641)">
<path d="M24.168 7.36867C24.0754 6.09558 23.8443 5.22513 23.5273 4.47421C23.1997 3.67686 22.7104 2.9686 22.0793 2.38623C21.4619 1.79411 20.722 1.34145 19.9167 1.06434C19.1446 0.790869 18.2669 0.609634 16.9906 0.589838C15.7047 0.565554 15.2966 0.563102 12.0394 0.656127C8.78232 0.749152 8.37504 0.774892 7.09719 0.867635C5.8241 0.960242 4.95365 1.19159 4.20291 1.50837C3.40538 1.83602 2.69712 2.32528 2.11474 2.95642C1.52263 3.57373 1.07015 4.31365 0.79286 5.11893C0.519392 5.8913 0.338151 6.76877 0.318356 8.04507C0.294072 9.33102 0.29162 9.73911 0.384645 12.9962C0.477669 16.2534 0.503409 16.6606 0.596152 17.9385C0.68876 19.2116 0.920104 20.082 1.23708 20.8329C1.56472 21.6303 2.05856 22.3384 2.68494 22.9209C3.30225 23.513 4.04218 23.9657 4.84745 24.2428C5.61982 24.5163 6.49729 24.6975 7.77377 24.7173C9.05465 24.7372 9.46292 24.7394 12.72 24.6464C15.9772 24.5534 16.3845 24.5278 17.6623 24.4349C18.9354 24.3423 19.8058 24.1111 20.5566 23.7942C22.151 23.1248 23.3893 21.8137 23.9666 20.1838C24.2399 19.4114 24.4213 18.5338 24.4411 17.2575C24.4608 15.9764 24.4632 15.5683 24.3702 12.3112C24.2772 9.05407 24.2608 8.64652 24.168 7.36867ZM22.2874 17.2252C22.2693 18.3983 22.0905 19.0366 21.9385 19.463C21.5653 20.5197 20.7595 21.3728 19.7259 21.8058C19.3088 21.9819 18.6771 22.1969 17.5116 22.2816C16.2478 22.3742 15.8687 22.3989 12.6678 22.4903C9.46688 22.5818 9.08223 22.5788 7.81984 22.5584C6.64674 22.5405 6.00845 22.3617 5.58198 22.2098C5.05639 22.0324 4.57428 21.7413 4.17865 21.3539C3.76919 20.9763 3.45118 20.5163 3.2441 20.0017C3.06803 19.5846 2.85303 18.9528 2.76826 17.7874C2.67574 16.5237 2.65098 16.1444 2.55956 12.9435C2.46814 9.74254 2.47108 9.35789 2.49146 8.09568C2.50944 6.92258 2.68817 6.28428 2.84015 5.85781C3.01751 5.33205 3.30862 4.85012 3.70075 4.45417C4.0782 4.04471 4.53816 3.7267 5.05295 3.51981C5.47005 3.34373 6.10186 3.12873 7.26726 3.04378C8.53101 2.95144 8.91028 2.9265 12.111 2.83508C15.3167 2.74353 15.6966 2.74679 16.959 2.76698C18.1321 2.78514 18.7704 2.96387 19.1969 3.11585C19.7224 3.29303 20.2045 3.58414 20.6002 3.97151C21.0096 4.34915 21.3276 4.8091 21.5347 5.32389C21.7108 5.74099 21.9258 6.37262 22.0108 7.5382C22.1031 8.80195 22.128 9.18104 22.2194 12.382C22.3109 15.5829 22.3075 15.9582 22.2874 17.2252Z" fill="#0F0F10"/>
<path d="M12.2062 6.49074C8.80392 6.58791 6.12229 9.42703 6.21947 12.8295C6.31664 16.232 9.15594 18.9134 12.5582 18.8162C15.9607 18.7191 18.6422 15.88 18.545 12.4775C18.4478 9.075 15.6087 6.39356 12.2062 6.49074ZM12.4964 16.6511C10.2892 16.7142 8.44764 14.9751 8.3846 12.7677C8.32155 10.5602 10.0608 8.71891 12.268 8.65587C14.4755 8.59282 16.3168 10.3319 16.3798 12.5393C16.4429 14.7467 14.7038 16.5881 12.4964 16.6511Z" fill="#0F0F10"/>
<path d="M20.0447 6.02304C20.0674 6.81755 19.4416 7.48016 18.6469 7.50285C17.8524 7.52555 17.1898 6.89973 17.1671 6.10522C17.1444 5.31053 17.7702 4.6481 18.5647 4.62541C19.3594 4.60272 20.022 5.22835 20.0447 6.02304Z" fill="#0F0F10"/>
</g>
<defs>
<clipPath id="clip0_410_641">
<rect width="24" height="24" fill="white" transform="translate(0 1) rotate(-1.63595)"/>
</clipPath>
</defs>
</svg>
