<svg width="26" height="25" viewBox="0 0 26 25" fill="none" xmlns="http://www.w3.org/2000/svg">
<g clip-path="url(#clip0_410_638)">
<path d="M25.3406 17.8311C25.3098 17.7694 25.2812 17.7182 25.2549 17.6773C24.8172 16.9396 23.9955 16.0422 22.7903 14.9848L22.7648 14.9605L22.752 14.9486L22.7391 14.9364L22.7265 14.9368C22.1791 14.444 21.8319 14.1121 21.6856 13.9413C21.4175 13.6156 21.35 13.2801 21.4815 12.9344C21.574 12.6734 21.9334 12.1176 22.559 11.2662C22.8879 10.8151 23.1483 10.4536 23.3405 10.1813C24.7265 8.22486 25.3161 6.98309 25.1093 6.45557L25.0313 6.33314C24.9792 6.25958 24.8481 6.19467 24.6384 6.13805C24.4282 6.08157 24.1615 6.07885 23.8379 6.12973L20.2413 6.25732C20.1825 6.23834 20.0993 6.24264 19.9916 6.27076C19.8841 6.29888 19.8303 6.31298 19.8303 6.31298L19.7686 6.34605L19.7199 6.38505C19.679 6.41109 19.6344 6.4561 19.5862 6.52C19.5382 6.58368 19.4987 6.65793 19.4679 6.74213C19.105 7.76091 18.6865 8.71042 18.2114 9.59067C17.9181 10.1158 17.6479 10.5714 17.4003 10.9577C17.153 11.3439 16.9445 11.6291 16.7748 11.813C16.605 11.9971 16.4511 12.145 16.3124 12.2575C16.1739 12.3699 16.0671 12.4188 15.9917 12.4042C15.9162 12.3896 15.8451 12.375 15.7777 12.3603C15.6591 12.2886 15.5625 12.1893 15.4881 12.0623C15.4135 11.9352 15.3611 11.7741 15.3305 11.5792C15.3001 11.3841 15.2805 11.216 15.2723 11.0745C15.2644 10.9332 15.2604 10.7331 15.2615 10.4747C15.2628 10.2162 15.2617 10.0414 15.2591 9.94978C15.25 9.6333 15.2464 9.28965 15.2482 8.91874C15.2502 8.54783 15.252 8.25393 15.2544 8.03739C15.2567 7.82064 15.2541 7.59145 15.2472 7.34996C15.2403 7.10846 15.2202 6.91949 15.1872 6.78286C15.1546 6.6464 15.1067 6.51439 15.045 6.38686C14.9829 6.25947 14.8945 6.16208 14.7804 6.09441C14.6659 6.02683 14.5246 5.97465 14.3571 5.93766C13.9129 5.85039 13.3493 5.81241 12.6661 5.82351C11.1168 5.85112 10.1245 5.97956 9.68938 6.20867C9.51712 6.30515 9.36245 6.43466 9.22548 6.59681C9.08079 6.78436 9.06273 6.88497 9.17144 6.89832C9.67328 6.95891 10.0321 7.12787 10.2484 7.40502L10.3278 7.5529C10.3892 7.65947 10.453 7.84942 10.5191 8.1225C10.5852 8.39558 10.6315 8.69844 10.6575 9.0309C10.7164 9.63769 10.7313 10.1581 10.7021 10.5923C10.6728 11.0266 10.643 11.3649 10.6123 11.6074C10.5817 11.85 10.5311 12.0473 10.4605 12.1993C10.3897 12.3513 10.3424 12.4443 10.3183 12.4783C10.2943 12.5123 10.2741 12.5338 10.2578 12.5425C10.1507 12.5871 10.0388 12.6114 9.92225 12.6148C9.80557 12.6181 9.66242 12.5638 9.49258 12.4519C9.32278 12.34 9.14544 12.1847 8.96055 11.9858C8.77565 11.7868 8.56556 11.5074 8.33019 11.1475C8.09498 10.7875 7.84943 10.3612 7.59367 9.86848L7.38352 9.51185C7.25196 9.28233 7.07164 8.94779 6.8424 8.50857C6.61303 8.06917 6.40923 7.64362 6.23087 7.23201C6.15934 7.05905 6.05557 6.92877 5.91974 6.84097L5.85615 6.80517C5.81363 6.77311 5.74591 6.73971 5.65331 6.7047C5.56058 6.66974 5.46418 6.64552 5.36369 6.63179L1.94195 6.75439C1.59222 6.76438 1.35718 6.85039 1.23675 7.0122L1.18889 7.08848C1.1651 7.13088 1.1544 7.19783 1.15702 7.28949C1.15963 7.3811 1.18783 7.49282 1.24163 7.62452C1.77479 8.78448 2.35045 9.90141 2.96863 10.9755C3.58681 12.0496 4.12202 12.9137 4.57394 13.5671C5.02595 14.221 5.48525 14.8372 5.95183 15.4154C6.41842 15.9938 6.72691 16.3642 6.8773 16.5266C7.02788 16.6892 7.14598 16.8106 7.23161 16.8914L7.5525 17.1823C7.75805 17.3764 8.05836 17.6074 8.45355 17.8753C8.84883 18.1433 9.28546 18.4058 9.76368 18.6632C10.242 18.9202 10.7957 19.1252 11.4252 19.2781C12.0546 19.4311 12.6644 19.4823 13.2547 19.4323L14.6912 19.3913C14.9818 19.3578 15.1999 19.2599 15.3454 19.0975L15.3933 19.0335C15.4253 18.9828 15.4544 18.9047 15.4803 18.8C15.5065 18.6951 15.5178 18.58 15.5142 18.4552C15.4955 18.0975 15.5135 17.7741 15.5676 17.485C15.6217 17.1961 15.6864 16.9775 15.7616 16.8294C15.8368 16.6815 15.9228 16.556 16.0196 16.4535C16.1165 16.3508 16.1859 16.2882 16.2271 16.2662C16.268 16.2441 16.3007 16.2289 16.3254 16.2197C16.5234 16.1474 16.7604 16.2051 17.0369 16.3933C17.3132 16.5812 17.5739 16.8156 17.8196 17.096C18.0651 17.3766 18.3595 17.691 18.7028 18.0395C19.0462 18.3881 19.3452 18.646 19.5999 18.814L19.8539 18.9567C20.0236 19.052 20.2427 19.1374 20.5116 19.213C20.78 19.2887 21.0137 19.3028 21.2127 19.2555L24.4087 19.1143C24.725 19.1053 24.9696 19.0459 25.1412 18.937C25.3131 18.8279 25.4137 18.7103 25.4437 18.5846C25.4735 18.4588 25.4713 18.3171 25.4379 18.1595C25.4038 18.0024 25.3714 17.8927 25.3406 17.8311Z" fill="#0F0F10"/>
</g>
<defs>
<clipPath id="clip0_410_638">
<rect width="24" height="24" fill="white" transform="translate(0.977539 1) rotate(-1.63595)"/>
</clipPath>
</defs>
</svg>
