<svg width="19" height="18" viewBox="0 0 19 18" fill="none" xmlns="http://www.w3.org/2000/svg">
<path fill-rule="evenodd" clip-rule="evenodd" d="M0.522361 16.404C0.15726 16.7691 0.15726 17.3611 0.522361 17.7262C0.887462 18.0913 1.47941 18.0913 1.84451 17.7262L9.24861 10.3221L16.6527 17.7262C17.0178 18.0913 17.6097 18.0913 17.9748 17.7262C18.34 17.3611 18.34 16.7691 17.9748 16.404L10.5708 8.99993L17.9747 1.59597C18.3398 1.23087 18.3398 0.638927 17.9747 0.273826C17.6096 -0.0912755 17.0177 -0.091275 16.6526 0.273826L9.2486 7.67778L1.84465 0.273826C1.47955 -0.091275 0.887602 -0.0912755 0.522501 0.273826C0.1574 0.638927 0.1574 1.23087 0.522501 1.59597L7.92646 8.99993L0.522361 16.404Z" fill="white"/>
</svg>
