<svg width="50" height="70" viewBox="0 0 50 70" fill="none" xmlns="http://www.w3.org/2000/svg">
<path fill-rule="evenodd" clip-rule="evenodd" d="M0.355469 25.375C0.355469 11.8125 11.4388 0.729126 25.0013 0.729126C38.5638 0.729126 49.6471 11.8125 49.6471 25.375C49.6471 39.0833 25.0013 69.2708 25.0013 69.2708C25.0013 69.2708 0.355469 39.0833 0.355469 25.375ZM35.775 25.8575C37.0968 26.9372 37.9157 27.8957 37.9624 29.0604V29.0607C38.0093 30.1282 37.471 31.1351 36.3832 32.0572L25.6435 40.9861L18.6711 35.1992C17.3607 34.1194 16.6119 32.7244 16.5535 31.2928C16.5065 30.1522 16.9042 29.1091 17.6765 28.3447C18.2263 27.7986 18.8228 27.4833 19.4078 27.3134L15.3132 23.9167C13.3363 22.2665 12.564 20.0709 13.2426 18.057C13.8743 16.2008 15.6056 15 17.653 15H24.5906H26.6964H32.0429C33.3298 15 34.4529 15.7643 34.8388 16.8924C35.0379 17.4987 35.3068 19.1002 33.2828 20.7744C32.9638 21.0357 32.7518 21.2276 32.5227 21.435C32.273 21.661 32.0029 21.9055 31.5515 22.2787C31.5515 22.2787 34.6633 24.9233 35.775 25.8575ZM32.0429 17.1834H26.6967V23.4433C27.4122 22.8509 28.274 22.1346 29.1362 21.4178C30.1631 20.5643 31.1906 19.7102 31.9727 19.064C32.7565 18.4086 32.9438 17.8628 32.8501 17.608C32.7683 17.3654 32.4289 17.1834 32.0429 17.1834ZM15.2199 18.7605C14.8453 19.8645 15.372 21.1502 16.6236 22.1938C17.0809 22.5724 17.7278 23.1084 18.4727 23.7256C20.3771 25.3034 22.9223 27.4121 24.5788 28.7812V17.1712H17.6413C16.495 17.1712 15.5475 17.7901 15.2199 18.7605ZM18.6593 31.171C18.6942 31.9475 19.1739 32.7846 19.9928 33.464V33.4637L24.5906 37.2852V31.5713C24.1344 31.1829 23.2684 30.4673 22.8358 30.1154C21.5724 29.06 20.3439 28.7325 19.1389 29.8971C18.7996 30.2246 18.6358 30.6736 18.6593 31.171ZM26.6846 37.2854L34.9557 30.431H34.9553C35.2712 30.1763 35.7743 29.6911 35.7508 29.2421C35.7394 28.8296 35.3299 28.3204 34.6046 27.7015C34.1747 27.3368 33.7551 26.9638 33.315 26.5725C32.7009 26.0266 32.0471 25.4453 31.2703 24.8021C30.3814 24.0621 29.3165 24.1227 28.4042 24.8871C28.0885 25.1516 27.6688 25.4723 27.311 25.7456C27.0455 25.9485 26.8141 26.1252 26.6846 26.2338V37.2854Z" fill="#0F0F10"/>
</svg>
