<svg width="25" height="25" viewBox="0 0 25 25" fill="none" xmlns="http://www.w3.org/2000/svg">
<g clip-path="url(#clip0_96_888)">
<path d="M24.1683 7.36867C24.0757 6.09558 23.8445 5.22513 23.5275 4.47421C23.1999 3.67686 22.7106 2.9686 22.0795 2.38623C21.4622 1.79411 20.7223 1.34145 19.917 1.06434C19.1448 0.790869 18.2672 0.609634 16.9909 0.589838C15.7049 0.565554 15.2968 0.563102 12.0397 0.656127C8.78257 0.749152 8.37528 0.774892 7.09743 0.867635C5.82435 0.960242 4.9539 1.19159 4.20315 1.50837C3.40563 1.83602 2.69736 2.32528 2.11499 2.95642C1.52288 3.57373 1.0704 4.31365 0.793104 5.11893C0.519636 5.8913 0.338396 6.76877 0.3186 8.04507C0.294316 9.33102 0.291864 9.73911 0.384889 12.9962C0.477914 16.2534 0.503653 16.6606 0.596397 17.9385C0.689004 19.2116 0.920349 20.082 1.23732 20.8329C1.56497 21.6303 2.0588 22.3384 2.68518 22.9209C3.30249 23.513 4.04242 23.9657 4.84769 24.2428C5.62006 24.5163 6.49753 24.6975 7.77401 24.7173C9.05489 24.7372 9.46316 24.7394 12.7203 24.6464C15.9774 24.5534 16.3847 24.5278 17.6625 24.4349C18.9356 24.3423 19.8061 24.1111 20.5568 23.7942C22.1513 23.1248 23.3896 21.8137 23.9669 20.1838C24.2402 19.4114 24.4216 18.5338 24.4414 17.2575C24.461 15.9764 24.4635 15.5683 24.3705 12.3112C24.2774 9.05407 24.261 8.64652 24.1683 7.36867ZM22.2877 17.2252C22.2695 18.3983 22.0908 19.0366 21.9388 19.463C21.5655 20.5197 20.7597 21.3728 19.7261 21.8058C19.309 21.9819 18.6774 22.1969 17.5118 22.2816C16.2481 22.3742 15.869 22.3989 12.668 22.4903C9.46713 22.5818 9.08247 22.5788 7.82008 22.5584C6.64699 22.5405 6.00869 22.3617 5.58222 22.2098C5.05664 22.0324 4.57453 21.7413 4.17889 21.3539C3.76943 20.9763 3.45142 20.5163 3.24435 20.0017C3.06827 19.5846 2.85327 18.9528 2.7685 17.7874C2.67598 16.5237 2.65122 16.1444 2.5598 12.9435C2.46838 9.74254 2.47132 9.35789 2.4917 8.09568C2.50968 6.92258 2.68841 6.28428 2.84039 5.85781C3.01775 5.33205 3.30886 4.85012 3.70099 4.45417C4.07845 4.04471 4.5384 3.7267 5.05319 3.51981C5.47029 3.34373 6.10211 3.12873 7.2675 3.04378C8.53125 2.95144 8.91053 2.9265 12.1113 2.83508C15.3169 2.74353 15.6968 2.74679 16.9592 2.76698C18.1323 2.78514 18.7706 2.96387 19.1971 3.11585C19.7227 3.29303 20.2048 3.58414 20.6004 3.97151C21.0099 4.34915 21.3279 4.8091 21.535 5.32389C21.711 5.74099 21.926 6.37262 22.011 7.5382C22.1033 8.80195 22.1283 9.18104 22.2197 12.382C22.3111 15.5829 22.3077 15.9582 22.2877 17.2252Z" fill="white"/>
<path d="M12.2062 6.49074C8.80392 6.58791 6.12229 9.42703 6.21947 12.8295C6.31664 16.232 9.15594 18.9134 12.5582 18.8162C15.9607 18.7191 18.6422 15.88 18.545 12.4775C18.4478 9.075 15.6087 6.39356 12.2062 6.49074ZM12.4964 16.6511C10.2892 16.7142 8.44764 14.9751 8.3846 12.7677C8.32155 10.5602 10.0608 8.71891 12.268 8.65587C14.4755 8.59282 16.3168 10.3319 16.3798 12.5393C16.4429 14.7467 14.7038 16.5881 12.4964 16.6511Z" fill="white"/>
<path d="M20.0447 6.02304C20.0674 6.81755 19.4416 7.48016 18.6469 7.50285C17.8524 7.52555 17.1898 6.89973 17.1671 6.10522C17.1444 5.31053 17.7702 4.6481 18.5647 4.62541C19.3594 4.60272 20.022 5.22835 20.0447 6.02304Z" fill="white"/>
</g>
<defs>
<clipPath id="clip0_96_888">
<rect width="24" height="24" fill="white" transform="translate(0 1) rotate(-1.63595)"/>
</clipPath>
</defs>
</svg>
