<svg width="24" height="18" viewBox="0 0 24 18" fill="none" xmlns="http://www.w3.org/2000/svg">
<path fill-rule="evenodd" clip-rule="evenodd" d="M0 0.909091C0 0.407014 0.407014 0 0.909091 0H23.0909C23.593 0 24 0.407014 24 0.909091C24 1.41117 23.593 1.81818 23.0909 1.81818H0.90909C0.407013 1.81818 0 1.41117 0 0.909091ZM0 9.00004C0 8.49796 0.407014 8.09095 0.909091 8.09095H23.0909C23.593 8.09095 24 8.49796 24 9.00004C24 9.50212 23.593 9.90913 23.0909 9.90913H0.90909C0.407013 9.90913 0 9.50212 0 9.00004ZM0.909091 16.1819C0.407014 16.1819 0 16.5889 0 17.091C0 17.5931 0.407013 18.0001 0.90909 18.0001H23.0909C23.593 18.0001 24 17.5931 24 17.091C24 16.5889 23.593 16.1819 23.0909 16.1819H0.909091Z" fill="#0F0F10"/>
</svg>
