<svg width="26" height="25" viewBox="0 0 26 25" fill="none" xmlns="http://www.w3.org/2000/svg">
<g clip-path="url(#clip0_96_885)">
<path d="M25.3408 17.8311C25.31 17.7694 25.2814 17.7182 25.2551 17.6773C24.8175 16.9396 23.9958 16.0422 22.7905 14.9848L22.765 14.9605L22.7522 14.9486L22.7393 14.9364L22.7267 14.9368C22.1793 14.444 21.8321 14.1121 21.6858 13.9413C21.4178 13.6156 21.3502 13.2801 21.4818 12.9344C21.5742 12.6734 21.9337 12.1176 22.5592 11.2662C22.8882 10.8151 23.1486 10.4536 23.3407 10.1813C24.7267 8.22486 25.3164 6.98309 25.1095 6.45557L25.0315 6.33314C24.9794 6.25958 24.8484 6.19467 24.6387 6.13805C24.4284 6.08157 24.1618 6.07885 23.8381 6.12973L20.2416 6.25732C20.1827 6.23834 20.0996 6.24264 19.9919 6.27076C19.8843 6.29888 19.8305 6.31298 19.8305 6.31298L19.7688 6.34605L19.7202 6.38505C19.6792 6.41109 19.6347 6.4561 19.5865 6.52C19.5385 6.58368 19.499 6.65793 19.4681 6.74213C19.1052 7.76091 18.6867 8.71042 18.2117 9.59067C17.9183 10.1158 17.6481 10.5714 17.4005 10.9577C17.1533 11.3439 16.9447 11.6291 16.7751 11.813C16.6052 11.9971 16.4514 12.145 16.3126 12.2575C16.1741 12.3699 16.0673 12.4188 15.992 12.4042C15.9165 12.3896 15.8453 12.375 15.778 12.3603C15.6593 12.2886 15.5627 12.1893 15.4884 12.0623C15.4137 11.9352 15.3613 11.7741 15.3307 11.5792C15.3003 11.3841 15.2808 11.216 15.2725 11.0745C15.2646 10.9332 15.2607 10.7331 15.2618 10.4747C15.263 10.2162 15.2619 10.0414 15.2593 9.94978C15.2503 9.6333 15.2467 9.28965 15.2485 8.91874C15.2505 8.54783 15.2523 8.25393 15.2546 8.03739C15.2569 7.82064 15.2543 7.59145 15.2474 7.34996C15.2405 7.10846 15.2204 6.91949 15.1874 6.78286C15.1548 6.6464 15.107 6.51439 15.0452 6.38686C14.9831 6.25947 14.8948 6.16208 14.7806 6.09441C14.6662 6.02683 14.5248 5.97465 14.3574 5.93766C13.9131 5.85039 13.3495 5.81241 12.6663 5.82351C11.1171 5.85112 10.1248 5.97956 9.68962 6.20867C9.51737 6.30515 9.3627 6.43466 9.22573 6.59681C9.08103 6.78436 9.06298 6.88497 9.17168 6.89832C9.67352 6.95891 10.0324 7.12787 10.2487 7.40502L10.328 7.5529C10.3894 7.65947 10.4532 7.84942 10.5194 8.1225C10.5854 8.39558 10.6317 8.69844 10.6577 9.0309C10.7167 9.63769 10.7315 10.1581 10.7023 10.5923C10.673 11.0266 10.6433 11.3649 10.6126 11.6074C10.5819 11.85 10.5313 12.0473 10.4607 12.1993C10.3899 12.3513 10.3426 12.4443 10.3186 12.4783C10.2945 12.5123 10.2743 12.5338 10.258 12.5425C10.151 12.5871 10.039 12.6114 9.9225 12.6148C9.80582 12.6181 9.66266 12.5638 9.49282 12.4519C9.32303 12.34 9.14569 12.1847 8.96079 11.9858C8.7759 11.7868 8.56581 11.5074 8.33043 11.1475C8.09523 10.7875 7.84968 10.3612 7.59391 9.86848L7.38376 9.51185C7.2522 9.28233 7.07188 8.94779 6.84265 8.50857C6.61328 8.06917 6.40948 7.64362 6.23112 7.23201C6.15958 7.05905 6.05581 6.92877 5.91998 6.84097L5.85639 6.80517C5.81388 6.77311 5.74615 6.73971 5.65355 6.7047C5.56083 6.66974 5.46442 6.64552 5.36394 6.63179L1.94219 6.75439C1.59246 6.76438 1.35743 6.85039 1.237 7.0122L1.18913 7.08848C1.16534 7.13088 1.15464 7.19783 1.15726 7.28949C1.15988 7.3811 1.18807 7.49282 1.24188 7.62452C1.77503 8.78448 2.35069 9.90141 2.96888 10.9755C3.58706 12.0496 4.12227 12.9137 4.57418 13.5671C5.0262 14.221 5.4855 14.8372 5.95208 15.4154C6.41866 15.9938 6.72715 16.3642 6.87755 16.5266C7.02813 16.6892 7.14622 16.8106 7.23186 16.8914L7.55274 17.1823C7.7583 17.3764 8.0586 17.6074 8.45379 17.8753C8.84908 18.1433 9.28571 18.4058 9.76392 18.6632C10.2422 18.9202 10.7959 19.1252 11.4254 19.2781C12.0548 19.4311 12.6646 19.4823 13.255 19.4323L14.6914 19.3913C14.982 19.3578 15.2001 19.2599 15.3456 19.0975L15.3935 19.0335C15.4255 18.9828 15.4546 18.9047 15.4805 18.8C15.5068 18.6951 15.518 18.58 15.5145 18.4552C15.4957 18.0975 15.5138 17.7741 15.5678 17.485C15.6219 17.1961 15.6867 16.9775 15.7619 16.8294C15.837 16.6815 15.923 16.556 16.0198 16.4535C16.1168 16.3508 16.1862 16.2882 16.2273 16.2662C16.2682 16.2441 16.3009 16.2289 16.3257 16.2197C16.5236 16.1474 16.7606 16.2051 17.0371 16.3933C17.3134 16.5812 17.5742 16.8156 17.8198 17.096C18.0654 17.3766 18.3598 17.691 18.703 18.0395C19.0465 18.3881 19.3454 18.646 19.6002 18.814L19.8542 18.9567C20.0238 19.052 20.2429 19.1374 20.5118 19.213C20.7802 19.2887 21.0139 19.3028 21.2129 19.2555L24.409 19.1143C24.7252 19.1053 24.9698 19.0459 25.1414 18.937C25.3134 18.8279 25.414 18.7103 25.4439 18.5846C25.4738 18.4588 25.4715 18.3171 25.4381 18.1595C25.404 18.0024 25.3717 17.8927 25.3408 17.8311Z" fill="white"/>
</g>
<defs>
<clipPath id="clip0_96_885">
<rect width="24" height="24" fill="white" transform="translate(0.977539 1) rotate(-1.63595)"/>
</clipPath>
</defs>
</svg>
