<svg width="30" height="30" viewBox="0 0 30 30" fill="none" xmlns="http://www.w3.org/2000/svg">
<g clip-path="url(#clip0_153_2764)">
<path d="M25.6697 16.0149H23.3496C23.5861 16.6623 23.7153 17.3611 23.7153 18.0893V26.8579C23.7153 27.1615 23.6624 27.453 23.5663 27.724H27.4019C28.8347 27.724 30.0003 26.5584 30.0003 25.1256V20.3455C30.0004 17.9576 28.0576 16.0149 25.6697 16.0149Z" fill="white"/>
<path d="M6.28507 18.0894C6.28507 17.3611 6.41427 16.6624 6.65076 16.0149H4.33067C1.94274 16.0149 0 17.9577 0 20.3456V25.1257C0 26.5585 1.16561 27.7241 2.5984 27.7241H6.43408C6.33792 27.453 6.28507 27.1616 6.28507 26.858V18.0894Z" fill="white"/>
<path d="M17.6523 13.7587H12.3483C9.96032 13.7587 8.01758 15.7015 8.01758 18.0894V26.858C8.01758 27.3363 8.40535 27.7241 8.88371 27.7241H21.1168C21.5952 27.7241 21.983 27.3363 21.983 26.858V18.0894C21.983 15.7015 20.0402 13.7587 17.6523 13.7587Z" fill="white"/>
<path d="M15.0002 2.27579C12.1284 2.27579 9.79199 4.61216 9.79199 7.48402C9.79199 9.43197 10.8671 11.1332 12.4549 12.0265C13.208 12.4501 14.0763 12.6922 15.0002 12.6922C15.9241 12.6922 16.7923 12.4501 17.5454 12.0265C19.1333 11.1332 20.2083 9.43191 20.2083 7.48402C20.2083 4.61222 17.872 2.27579 15.0002 2.27579Z" fill="white"/>
<path d="M5.85499 7.13022C3.70723 7.13022 1.95996 8.87749 1.95996 11.0252C1.95996 13.173 3.70723 14.9203 5.85499 14.9203C6.39979 14.9203 6.91858 14.8074 7.38985 14.6046C8.20466 14.2538 8.8765 13.6328 9.29222 12.855C9.58402 12.309 9.75002 11.6862 9.75002 11.0252C9.75002 8.87755 8.00275 7.13022 5.85499 7.13022Z" fill="white"/>
<path d="M24.145 7.13022C21.9973 7.13022 20.25 8.87749 20.25 11.0252C20.25 11.6863 20.416 12.3091 20.7078 12.855C21.1235 13.6328 21.7954 14.2538 22.6102 14.6046C23.0814 14.8074 23.6002 14.9203 24.145 14.9203C26.2928 14.9203 28.0401 13.173 28.0401 11.0252C28.0401 8.87749 26.2928 7.13022 24.145 7.13022Z" fill="white"/>
</g>
<defs>
<clipPath id="clip0_153_2764">
<rect width="30" height="30" fill="white"/>
</clipPath>
</defs>
</svg>
